<?xml version="1.0" encoding="UTF-8"?>
<svg id="Vrstva_2" data-name="Vrstva 2" xmlns="http://www.w3.org/2000/svg" viewBox="0 0 317.01 150.69">
  <defs>
    <style>
      .cls-1, .cls-2 {
        fill: #2934c1;
      }

      .cls-2 {
        opacity: .31;
      }
    </style>
  </defs>
  <g id="Vrstva_1-2" data-name="Vrstva 1">
    <g>
      <g>
        <path class="cls-1" d="M41.82,72.74l-3.56,7.6h-6.39v-.79l16.98-36.17h2.83l16.88,36.17v.79h-6.34l-3.62-7.6h-16.77ZM43.81,67.6h12.84l-6.39-14.68-6.45,14.68Z"/>
        <path class="cls-1" d="M101.15,79.45v.89h-6.19l-9.12-12.79h-8.07v12.79h-6.13v-36.69h15.15c7.97,0,12.74,5.4,12.74,11.95,0,5.08-3.04,9.33-7.71,11.01l9.33,12.84ZM86.74,62.52c3.98,0,6.87-2.88,6.87-6.87s-2.83-6.71-6.87-6.71h-9.07v13.58h9.07Z"/>
        <path class="cls-1" d="M102.25,49.05v-5.4h27.25v5.4h-10.64v31.29h-5.98v-31.29h-10.64Z"/>
        <path class="cls-1" d="M137.26,69.91c.26,4.14,4.77,5.66,8.75,5.66s8.49-1.15,8.49-5.71c0-4.82-4.98-5.29-9.22-5.71-6.71-.58-13.37-2.73-13.37-10.06s6.66-11.11,13.79-11.11,13.58,3.14,13.73,10.64h-5.77c-.26-3.93-4.4-5.19-8.02-5.19-3.35,0-7.7,1.36-7.7,5.5s4.14,4.67,8.39,5.24c7.44.84,14.26,2.31,14.26,10.75s-7.6,11.11-14.47,11.11c-7.18.16-14.68-3.41-14.83-11.11h5.98Z"/>
        <path class="cls-1" d="M182.29,80.97c-10.06,0-18.61-7.02-18.61-18.97s8.75-18.97,18.71-18.97,18.66,7.02,18.66,18.97c0,11.16-7.71,18.97-18.76,18.97ZM182.39,75.2c6.87,0,12.58-4.67,12.58-13.21s-5.66-13.26-12.53-13.26-12.58,4.77-12.58,13.26,5.61,13.21,12.53,13.21Z"/>
        <path class="cls-1" d="M238.53,43.54h2.25v36.79h-6.13v-22.96l-10.59,13.58h-.84l-10.64-13.58v22.96h-6.13v-36.79h2.25l14.94,18.97,14.89-18.97Z"/>
        <path class="cls-1" d="M270.66,49h-16.2v9.7h15.3v5.4h-15.3v10.69h16.51v5.56h-22.64v-36.69h22.33v5.35Z"/>
      </g>
      <g>
        <path class="cls-1" d="M43.25,95.83h2.56l2.58,4.74,2.6-4.74h2.53v9.19h-2.06v-6.13l-2.49,4.58h-1.17l-2.48-4.58v6.13h-2.07v-9.19Z"/>
        <path class="cls-1" d="M59.94,95.83h2.44l3.46,9.19h-2.26l-.56-1.61h-3.74l-.57,1.61h-2.21l3.45-9.19ZM62.34,101.5l-1.2-3.4-1.2,3.4h2.4Z"/>
        <path class="cls-1" d="M68.83,95.83h2.07v7.25h3.7v1.94h-5.77v-9.19Z"/>
        <path class="cls-1" d="M79.15,93.17h2.44l-1.73,1.97h-2.04l1.33-1.97ZM77.9,95.83h2.07v9.19h-2.07v-9.19Z"/>
        <path class="cls-1" d="M83.85,95.83h4.14c1.82,0,3.2,1.32,3.2,3.08,0,1.29-.76,2.32-1.9,2.76l2.18,3.36h-2.56l-1.93-3.14h-1.07v3.14h-2.07v-9.19ZM84.89,93.17h1.83l.67.92.65-.92h1.83l-1.32,1.97h-2.33l-1.32-1.97ZM85.92,97.78v2.3h2.04c.64,0,1.12-.49,1.12-1.15s-.48-1.16-1.12-1.16h-2.04Z"/>
        <path class="cls-1" d="M94.17,102.26h2.12c0,.6.63,1.08,1.41,1.08.71,0,1.29-.37,1.29-.89,0-1.44-4.68-.81-4.68-3.93,0-1.73,1.45-2.85,3.3-2.85s3.36,1.2,3.36,2.8h-2.12c0-.55-.55-.96-1.25-.96-.64,0-1.17.32-1.17.84,0,1.45,4.68.67,4.68,3.86,0,1.8-1.51,2.97-3.44,2.97s-3.5-1.28-3.5-2.92Z"/>
        <path class="cls-1" d="M106.4,97.78h-2.41v-1.95h6.89v1.95h-2.41v7.25h-2.06v-7.25Z"/>
        <path class="cls-1" d="M113.4,95.83h2.3l2.38,6.43,2.37-6.43h2.26l-3.6,9.19h-2.13l-3.6-9.19Z"/>
        <path class="cls-1" d="M127.06,93.17h2.44l-1.73,1.97h-2.04l1.33-1.97ZM125.81,95.83h2.07v9.19h-2.07v-9.19Z"/>
        <path class="cls-1" d="M139.37,95.83h2.44l3.46,9.19h-2.26l-.56-1.61h-3.74l-.57,1.61h-2.21l3.45-9.19ZM141.77,101.5l-1.2-3.4-1.2,3.4h2.4Z"/>
        <path class="cls-1" d="M153.32,95.83h2.08l3.82,5.62v-5.62h2.06v9.19h-2.09l-3.81-5.62v5.62h-2.07v-9.19Z"/>
        <path class="cls-1" d="M167.71,95.83h2.44l3.46,9.19h-2.26l-.56-1.61h-3.74l-.57,1.61h-2.21l3.45-9.19ZM170.1,101.5l-1.2-3.4-1.2,3.4h2.4Z"/>
        <path class="cls-1" d="M178.46,97.78h-2.41v-1.95h6.89v1.95h-2.41v7.25h-2.06v-7.25Z"/>
        <path class="cls-1" d="M186.28,95.83h6.1v1.95h-4.04v1.65h3.6v1.95h-3.6v1.71h4.1v1.94h-6.17v-9.19ZM186.97,93.17h1.81l.67.92.67-.92h1.83l-1.32,1.97h-2.34l-1.3-1.97Z"/>
        <path class="cls-1" d="M195.91,95.83h4.14c1.82,0,3.2,1.32,3.2,3.08,0,1.29-.76,2.32-1.9,2.76l2.18,3.36h-2.56l-1.93-3.14h-1.07v3.14h-2.07v-9.19ZM197.98,97.78v2.3h2.04c.64,0,1.12-.49,1.12-1.15s-.48-1.16-1.12-1.16h-2.04Z"/>
        <path class="cls-1" d="M209.23,95.83h2.44l3.46,9.19h-2.26l-.56-1.61h-3.74l-.57,1.61h-2.21l3.45-9.19ZM211.63,101.5l-1.2-3.4-1.2,3.4h2.4Z"/>
        <path class="cls-1" d="M217.67,100.43c0-2.7,2.09-4.75,4.86-4.75,2.37,0,4.26,1.52,4.68,3.66h-2.2c-.35-1-1.3-1.68-2.48-1.68-1.56,0-2.74,1.19-2.74,2.77s1.19,2.77,2.74,2.77c1.17,0,2.13-.68,2.48-1.68h2.2c-.41,2.14-2.3,3.66-4.68,3.66-2.77,0-4.86-2.05-4.86-4.76ZM220.04,93.17h1.82l.67.92.67-.92h1.83l-1.32,1.97h-2.34l-1.32-1.97Z"/>
        <path class="cls-1" d="M230.11,102.26h2.12c0,.6.63,1.08,1.41,1.08.71,0,1.29-.37,1.29-.89,0-1.44-4.68-.81-4.68-3.93,0-1.73,1.45-2.85,3.3-2.85s3.36,1.2,3.36,2.8h-2.12c0-.55-.55-.96-1.25-.96-.64,0-1.17.32-1.17.84,0,1.45,4.68.67,4.68,3.86,0,1.8-1.51,2.97-3.44,2.97s-3.5-1.28-3.5-2.92Z"/>
        <path class="cls-1" d="M242.34,97.78h-2.41v-1.95h6.89v1.95h-2.41v7.25h-2.06v-7.25Z"/>
        <path class="cls-1" d="M249.35,95.83h2.3l2.38,6.43,2.37-6.43h2.26l-3.6,9.19h-2.13l-3.6-9.19Z"/>
        <path class="cls-1" d="M263,93.17h2.44l-1.73,1.97h-2.04l1.33-1.97ZM261.75,95.83h2.07v9.19h-2.07v-9.19Z"/>
      </g>
      <polygon class="cls-1" points="9 141.69 9 9 158.51 9 158.51 0 0 0 0 150.69 158.51 150.69 158.51 141.69 9 141.69"/>
      <polygon class="cls-2" points="317.01 0 158.51 0 158.51 9 308.01 9 308.01 141.69 158.51 141.69 158.51 150.69 317.01 150.69 317.01 0"/>
    </g>
  </g>
</svg>